<?xml version="1.0" standalone="no"?>
<!DOCTYPE svg PUBLIC "-//W3C//DTD SVG 20010904//EN"
 "http://www.w3.org/TR/2001/REC-SVG-20010904/DTD/svg10.dtd">
<svg version="1.0" xmlns="http://www.w3.org/2000/svg"
 width="1024.000000pt" height="1024.000000pt" viewBox="0 0 1024.000000 1024.000000"
 preserveAspectRatio="xMidYMid meet">
<metadata>
Created by potrace 1.16, written by Peter Selinger 2001-2019
</metadata>
<g transform="translate(0.000000,1024.000000) scale(0.100000,-0.100000)"
fill="#000000" stroke="none">
<path d="M4820 8854 c-92 -44 -386 -181 -580 -270 -102 -46 -167 -65 -203 -57
-20 4 -19 3 4 -11 38 -22 148 -62 237 -86 l80 -22 -6 -147 c-4 -121 -2 -152
11 -177 8 -17 12 -35 9 -40 -4 -6 -42 -32 -84 -58 -102 -63 -220 -90 -398 -90
-136 0 -158 4 -315 65 l-105 41 7 117 c6 115 -5 191 -27 191 -32 0 -82 -113
-97 -216 l-5 -41 -91 -7 c-81 -5 -100 -11 -181 -52 -104 -52 -276 -174 -327
-231 -20 -22 -51 -65 -70 -96 -30 -51 -43 -63 -109 -97 -155 -78 -407 -260
-547 -393 -138 -131 -269 -312 -347 -480 -73 -156 -109 -289 -126 -468 -6 -63
-23 -175 -38 -249 -25 -124 -27 -154 -27 -375 0 -132 3 -359 6 -505 7 -282 23
-403 84 -625 77 -282 210 -579 367 -816 277 -420 589 -735 1026 -1037 224
-155 893 -527 1107 -616 50 -20 161 -80 248 -133 186 -112 296 -162 467 -211
122 -35 129 -36 305 -36 165 -1 189 1 288 26 152 39 291 96 437 179 69 39 139
77 155 84 75 32 437 214 600 301 221 117 280 151 470 272 361 229 563 404 914
792 232 257 257 287 333 405 201 312 306 542 378 825 41 162 50 239 63 540 23
514 10 791 -48 1027 -18 76 -38 173 -44 215 -19 135 -52 271 -82 329 -25 51
-187 239 -265 310 -61 54 -172 124 -238 148 -43 16 -75 35 -85 51 -9 14 -11
21 -3 16 7 -4 15 0 19 11 3 10 15 25 26 34 l21 17 -22 73 c-11 41 -24 117 -28
169 -6 93 -7 96 -44 131 -20 19 -64 46 -96 59 -71 28 -213 103 -271 142 l-43
29 1 175 c1 186 -2 198 -47 207 -22 4 -28 -1 -40 -29 -11 -27 -12 -61 -5 -176
5 -79 7 -146 5 -150 -2 -3 -18 -9 -34 -13 -38 -8 -289 -109 -363 -146 l-58
-29 -59 30 c-32 16 -122 57 -201 90 -79 34 -166 74 -193 88 -48 26 -48 26 -41
67 4 22 10 100 13 174 l7 135 95 36 c98 37 215 94 223 107 3 5 -26 7 -63 5
-67 -3 -74 -1 -212 61 -79 36 -188 81 -243 102 -136 50 -316 124 -340 139 -11
7 -41 21 -67 31 -47 17 -47 17 -139 -11 -89 -27 -94 -27 -185 -16 -110 14
-258 63 -458 151 -87 38 -152 61 -175 61 -22 0 -73 -18 -131 -46z m149 -76
c40 -35 287 -156 375 -184 l57 -18 -8 -66 c-8 -69 -8 -152 2 -262 l6 -66 -98
-32 c-207 -68 -299 -109 -339 -150 l-38 -39 -17 28 c-13 21 -52 42 -171 93
-85 37 -180 74 -210 83 l-56 16 -6 102 c-3 56 -4 127 -3 157 1 30 -1 71 -5 90
l-8 35 63 24 c122 47 386 180 397 201 14 26 16 26 59 -12z m976 -168 c12 -11
57 -36 101 -54 43 -19 138 -59 209 -90 72 -30 135 -56 140 -56 8 0 10 -65 9
-197 l-2 -198 -33 -11 c-19 -7 -72 -24 -119 -38 -108 -34 -238 -97 -269 -130
l-24 -26 -18 30 c-10 16 -37 39 -61 51 -63 32 -329 145 -360 153 l-27 6 2 195
2 194 30 7 c43 9 329 138 362 163 35 25 32 25 58 1z m-1106 -769 c11 -7 6 -11
-20 -15 -37 -7 -276 -31 -404 -41 -135 -11 -302 -42 -490 -91 -99 -25 -235
-59 -302 -74 -67 -16 -130 -33 -140 -38 -10 -5 -65 -26 -123 -47 -109 -39
-348 -150 -435 -202 -198 -119 -367 -237 -396 -276 -3 -5 -10 -8 -14 -7 -20 6
-169 -134 -170 -160 0 -5 -21 -31 -71 -89 -64 -74 -142 -200 -174 -282 -27
-69 -34 -102 -38 -184 -6 -128 8 -193 64 -306 114 -226 401 -428 733 -514 112
-29 413 -67 576 -72 189 -6 424 14 680 57 407 69 687 171 1360 493 790 377
1293 536 1793 566 479 28 926 -103 1168 -344 88 -88 136 -152 152 -205 9 -30
23 -210 16 -210 -1 0 -13 19 -27 43 -31 53 -173 190 -252 244 -212 143 -516
233 -792 233 -186 0 -341 -22 -628 -90 -132 -32 -580 -197 -700 -258 -22 -11
-146 -71 -275 -132 -129 -62 -271 -131 -315 -155 -44 -24 -159 -79 -255 -123
-473 -216 -662 -279 -1075 -362 -320 -63 -570 -89 -866 -90 -171 0 -299 13
-504 51 -361 68 -660 203 -875 396 -186 167 -271 298 -320 497 -19 77 -22 109
-18 225 6 170 24 242 99 388 76 149 161 264 289 394 113 114 199 177 368 268
474 255 833 367 1466 456 181 25 363 50 405 54 106 12 493 13 510 2z m1590
-42 c34 -27 130 -70 384 -172 l77 -31 0 -130 c0 -72 3 -154 6 -182 l6 -51
-103 -36 c-57 -20 -151 -50 -209 -68 -58 -17 -129 -42 -159 -55 l-54 -24 -62
24 c-33 14 -104 39 -156 57 -51 17 -129 44 -171 61 l-78 29 0 142 c0 78 -3
165 -6 193 -6 50 -6 51 27 64 63 25 424 192 434 201 15 14 24 11 64 -22z
m-664 -18 l30 -13 -33 -14 c-19 -7 -116 -25 -215 -39 -100 -14 -236 -35 -302
-47 -66 -11 -142 -25 -170 -29 -27 -5 -120 -18 -205 -30 -320 -42 -800 -144
-937 -198 -27 -11 -83 -31 -125 -45 -192 -64 -441 -196 -610 -325 -166 -125
-347 -330 -421 -476 -121 -242 -128 -507 -21 -767 25 -60 44 -114 42 -118 -2
-5 -45 8 -95 29 -178 74 -306 166 -361 260 -25 42 -26 52 -25 165 1 66 7 142
13 170 66 293 177 477 415 689 197 176 502 355 765 450 332 120 766 215 1180
257 58 6 188 22 290 35 365 50 504 63 630 61 72 -1 138 -8 155 -15z m2065
-236 c47 -15 96 -34 109 -42 l23 -15 -27 -28 c-22 -23 -29 -42 -35 -97 -11
-102 -36 -144 -100 -166 -28 -10 -54 -16 -58 -13 -3 3 -1 6 5 6 5 0 19 20 32
44 19 38 21 58 19 136 l-3 92 -91 33 c-90 32 -185 74 -214 96 -12 8 -47 -3
-158 -53 l-143 -63 -4 -129 c-2 -71 -8 -133 -13 -138 -5 -5 -29 -8 -53 -6
l-44 3 -8 85 c-4 47 -6 123 -5 170 3 82 4 85 28 88 24 4 225 87 245 102 6 4
37 22 69 39 l59 31 141 -74 c78 -40 179 -86 226 -101z m-2415 41 c109 -53 204
-87 307 -111 l77 -18 4 -186 c2 -102 7 -196 11 -207 7 -20 -9 -30 -196 -121
-111 -55 -220 -114 -242 -132 -21 -17 -42 -31 -45 -31 -4 0 -18 14 -30 31 -15
21 -53 45 -110 71 -86 40 -343 151 -371 160 -12 4 -14 33 -11 184 1 98 5 182
8 186 2 5 15 8 27 8 60 0 381 137 425 181 14 15 33 27 41 28 8 0 55 -19 105
-43z m2034 -271 c131 -19 191 -34 214 -53 22 -20 23 -70 0 -79 -19 -8 -135 8
-241 32 -79 18 -142 61 -142 96 0 24 24 24 169 4z m-3465 -110 c3 -9 0 -15
-10 -15 -14 0 -14 -2 0 -15 8 -8 21 -15 29 -15 9 0 18 -6 21 -12 5 -10 7 -10
12 0 3 6 12 12 19 12 7 0 16 -6 18 -12 4 -10 8 -10 14 -2 12 16 62 30 123 33
12 1 12 3 2 9 -8 5 1 8 22 8 48 -1 35 -10 -64 -42 -152 -48 -318 -141 -456
-256 -172 -142 -257 -293 -257 -458 0 -121 26 -187 107 -265 70 -68 155 -117
241 -140 110 -28 358 -13 513 31 137 39 425 175 674 317 217 124 558 296 724
365 283 118 637 214 1039 282 388 66 859 41 1135 -59 112 -41 290 -122 335
-152 60 -40 162 -144 183 -187 24 -47 35 -92 23 -92 -5 0 -45 25 -88 56 -133
96 -254 149 -438 193 -246 60 -301 66 -565 66 -243 -1 -247 -1 -485 -43 -328
-59 -593 -131 -930 -257 -98 -36 -536 -255 -740 -370 -312 -175 -484 -255
-711 -328 -240 -78 -318 -91 -549 -91 -190 0 -205 1 -290 27 -169 52 -332 143
-414 233 -85 92 -126 229 -118 399 6 135 23 190 88 291 159 244 483 463 723
490 22 2 42 6 44 9 10 9 20 5 26 -10z m432 -132 c41 -33 113 -68 219 -107 33
-12 105 -42 161 -66 l100 -45 -4 -180 c-2 -99 -9 -185 -14 -192 -5 -6 -20 -14
-33 -17 -13 -3 -70 -28 -127 -54 -57 -27 -119 -54 -138 -62 -50 -20 -142 -70
-165 -90 -36 -31 -44 -32 -72 -5 -31 28 -128 77 -250 126 -178 70 -284 123
-277 139 3 8 7 80 9 160 l4 145 233 116 c145 72 244 128 262 147 32 34 32 34
92 -15z m3332 -1263 c187 -38 366 -112 497 -205 132 -94 251 -246 312 -400 26
-66 28 -79 28 -220 -1 -316 -76 -637 -219 -935 -44 -91 -200 -360 -209 -360
-5 0 -6 7 -3 16 22 58 59 208 78 319 18 108 22 169 23 360 0 215 -2 235 -23
300 -45 135 -122 243 -233 325 -86 64 -141 90 -251 119 -273 71 -611 9 -991
-181 -89 -44 -200 -103 -247 -131 -47 -27 -166 -98 -265 -157 -391 -233 -600
-336 -937 -463 -282 -107 -435 -143 -719 -168 -449 -40 -927 84 -1354 351 -82
51 -129 89 -285 226 -116 102 -301 297 -245 257 71 -49 106 -63 160 -63 42 0
55 3 55 15 0 8 -9 15 -20 15 -23 0 -27 15 -6 23 21 8 110 -2 114 -13 2 -6 10
-6 21 -1 9 5 44 8 78 7 l61 -2 -28 36 c-42 53 -102 107 -125 114 -11 3 -4 3
15 1 289 -35 336 -38 463 -26 l128 12 42 -34 c53 -44 83 -59 204 -103 174 -63
262 -77 488 -78 123 -1 235 4 290 13 112 17 360 87 497 141 130 52 445 207
608 300 583 334 857 462 1160 543 74 20 169 42 210 48 215 33 466 32 628 -1z
m-6016 -658 c65 -56 145 -112 218 -152 86 -47 148 -91 200 -141 21 -19 98 -65
172 -102 139 -68 179 -101 329 -262 62 -66 181 -175 192 -175 4 0 5 -5 1 -11
-11 -18 -140 -3 -235 27 -89 28 -368 168 -483 241 -38 24 -92 66 -120 92 -28
26 -78 69 -111 95 -80 64 -128 137 -166 254 -56 174 -56 185 3 134z m5981
-243 c98 -50 176 -137 252 -282 91 -175 148 -437 125 -580 -28 -176 -109 -457
-131 -457 -5 0 -3 12 4 28 10 19 11 37 5 60 -9 33 -10 33 -33 18 -27 -18 -55
-21 -55 -6 0 6 -9 10 -20 10 -11 0 -20 -4 -20 -10 0 -18 -30 -11 -30 8 -1 15
-2 15 -15 -2 -10 -13 -15 -15 -15 -6 0 9 -5 7 -15 -6 -14 -19 -14 -19 -15 1 0
11 7 44 15 74 37 141 27 427 -20 529 -31 67 -62 104 -179 210 -110 100 -158
121 -433 192 l-43 11 17 25 c9 14 47 41 84 59 37 18 81 42 96 52 118 82 334
118 426 72z m-667 -426 c104 9 204 -4 204 -27 0 -11 -60 -186 -89 -259 -14
-35 -14 -47 -1 -27 17 24 71 -48 104 -138 28 -76 52 -116 65 -107 4 2 13 0 21
-5 11 -7 2 -32 -44 -127 -197 -404 -450 -726 -796 -1016 -194 -162 -311 -241
-344 -233 -26 6 -205 163 -231 202 -19 30 -23 25 73 93 39 29 72 54 72 56 0 2
-57 -34 -127 -81 -312 -206 -748 -368 -1148 -426 -124 -18 -673 -17 -775 1
-105 18 -306 66 -426 101 -396 116 -938 481 -1242 838 -213 249 -260 317 -396
571 -58 108 -67 132 -41 111 8 -7 15 -18 15 -25 0 -7 7 -15 14 -18 8 -3 23
-21 32 -39 9 -18 38 -53 64 -78 26 -25 52 -55 59 -67 6 -13 18 -23 26 -23 8 0
16 -6 16 -12 1 -7 3 -20 4 -28 1 -8 3 -22 4 -31 0 -8 24 -26 51 -39 28 -13 56
-30 62 -37 6 -7 21 -13 34 -13 12 0 26 -4 29 -10 3 -5 -2 -10 -12 -10 -10 0 2
-11 27 -24 44 -23 44 -23 55 -3 11 22 32 23 27 1 -2 -8 1 -13 6 -12 5 2 67
-53 138 -122 71 -68 129 -123 129 -120 0 2 34 -21 75 -51 393 -289 785 -459
1236 -535 138 -23 475 -24 641 -1 393 55 787 211 1158 460 191 128 487 401
667 614 129 152 302 412 383 572 40 79 70 130 76 124 5 -5 49 -5 105 0z
m-4891 -56 c22 -11 102 -65 177 -121 362 -266 453 -328 637 -431 197 -110 417
-203 616 -260 408 -117 914 -85 1343 86 201 80 381 177 532 285 51 37 104 67
118 69 33 4 230 57 291 79 24 9 70 20 102 25 32 5 80 21 106 34 26 14 86 44
133 67 47 22 102 50 122 60 50 24 42 11 -54 -96 -189 -210 -485 -458 -735
-616 -260 -164 -645 -314 -917 -358 -462 -75 -742 -66 -1111 37 -294 82 -520
196 -834 421 -181 130 -225 166 -324 261 -117 113 -270 307 -321 409 -35 67
29 94 119 49z m3833 -2000 c6 -29 -349 -196 -543 -256 -177 -54 -459 -101
-492 -82 -14 8 -14 11 -3 11 12 0 12 2 2 9 -10 6 -3 10 23 15 20 4 39 14 42
22 3 7 12 14 20 14 19 0 63 45 63 65 0 18 16 20 24 3 5 -10 7 -10 12 0 4 8 29
12 75 12 39 0 69 4 69 10 0 6 9 10 20 10 11 0 20 5 20 10 0 6 18 10 40 10 34
0 40 3 40 20 0 20 5 21 165 20 92 -1 165 -6 165 -11 0 -5 5 -9 11 -9 5 0 7 5
4 10 -4 6 7 10 24 10 17 0 31 5 31 10 0 6 10 10 23 11 12 0 17 3 10 5 -15 7
-5 34 12 34 7 0 18 7 25 15 8 10 24 13 47 10 l35 -4 -23 21 c-16 14 -18 19 -7
15 10 -3 20 -2 23 3 8 14 40 5 43 -13z"/>
<path d="M4895 8633 c-48 -27 -262 -119 -296 -128 -24 -6 -25 -8 -17 -73 4
-37 7 -95 7 -129 1 -56 3 -63 21 -63 27 0 235 -67 284 -92 l38 -20 77 35 c74
34 230 87 254 87 9 0 13 25 12 93 0 50 3 106 7 123 l7 31 -177 79 -177 79 -40
-22z"/>
<path d="M5897 8476 c-10 -8 -75 -37 -145 -66 l-127 -51 3 -122 c2 -67 7 -125
10 -128 4 -4 36 -17 72 -29 101 -35 214 -81 228 -92 9 -8 28 -3 70 15 71 32
234 87 257 87 14 0 16 6 11 31 -3 17 -6 73 -6 123 l0 92 -42 16 c-24 9 -103
44 -177 77 -74 34 -134 61 -135 61 -1 0 -9 -7 -19 -14z"/>
<path d="M6375 7682 c-11 -2 -83 -32 -160 -67 -77 -34 -148 -65 -157 -68 -15
-5 -17 -22 -16 -137 1 -120 3 -130 20 -130 30 0 239 -70 286 -95 l42 -24 83
39 c84 40 253 94 272 87 6 -3 10 38 10 119 l0 124 -35 11 c-19 7 -66 28 -105
47 -38 19 -99 46 -135 59 -36 14 -69 28 -75 32 -5 4 -19 6 -30 3z"/>
<path d="M5299 7479 c-13 -10 -28 -19 -33 -19 -4 0 -62 -25 -127 -56 -66 -31
-136 -58 -157 -61 l-37 -5 -2 -113 -1 -113 127 -52 c69 -29 160 -68 201 -87
l75 -34 169 81 c128 62 166 85 162 96 -3 9 -6 68 -6 133 l0 117 -89 28 c-49
15 -127 45 -174 65 -83 37 -85 38 -108 20z"/>
<path d="M4328 6938 c-32 -23 -241 -118 -313 -141 l-50 -17 1 -112 1 -111 44
-17 c243 -94 293 -115 323 -135 l36 -24 130 63 c72 35 157 72 190 82 l60 19 0
121 c0 86 -4 124 -12 131 -14 10 -96 44 -235 97 -50 19 -104 41 -120 49 -26
14 -31 13 -55 -5z"/>
<path d="M2502 3449 c-17 -27 -15 -47 9 -85 11 -19 17 -34 13 -34 -4 0 1 -9
11 -20 10 -11 22 -20 27 -20 5 0 26 -11 48 -25 40 -25 64 -25 74 1 3 9 11 12
17 8 8 -4 9 -3 5 5 -4 6 -16 9 -27 6 -14 -5 -19 -2 -19 12 0 25 -67 99 -86 95
-9 -2 -13 1 -9 7 3 6 -1 14 -9 17 -9 3 -16 10 -16 16 0 5 -6 15 -13 23 -11 11
-15 10 -25 -6z"/>
<path d="M7665 8688 c-32 -17 -76 -61 -91 -90 -34 -66 -5 -169 57 -200 74 -38
143 -12 202 75 24 35 28 49 24 90 -8 92 -120 165 -192 125z"/>
<path d="M3870 8413 c-19 -14 -78 -45 -130 -69 -133 -62 -143 -68 -142 -76 1
-5 2 -50 2 -102 l0 -93 69 -17 c38 -9 115 -34 171 -56 116 -44 98 -46 269 29
52 23 99 41 105 41 8 0 10 43 9 133 -1 72 -4 131 -7 130 -9 -4 -240 78 -263
93 -30 19 -42 17 -83 -13z"/>
<path d="M6875 8257 c-44 -22 -114 -56 -155 -74 l-75 -32 -3 -111 c-2 -70 1
-110 8 -110 13 0 278 -119 308 -138 20 -13 27 -12 70 6 26 11 72 27 102 37 30
10 76 28 102 41 26 13 55 24 65 24 17 0 18 11 18 119 l0 119 -45 15 c-78 27
-269 113 -288 130 -10 9 -20 17 -23 16 -2 0 -40 -19 -84 -42z"/>
<path d="M7934 2810 c-41 -16 -74 -68 -74 -117 0 -39 5 -50 39 -84 45 -45 84
-51 136 -19 59 37 83 139 43 187 -29 35 -99 51 -144 33z"/>
<path d="M7428 2096 c-10 -7 -15 -16 -12 -19 3 -3 -1 -20 -10 -37 -14 -28 -14
-35 -1 -60 17 -33 44 -44 85 -35 37 8 60 39 60 83 0 63 -75 105 -122 68z"/>
</g>
</svg>
